# ProBuilder 4.5.2
# https://unity3d.com/unity/features/worldbuilding/probuilder
# 09/12/2021 15:07:35

mtllib ./Lightning_mesh.mtl
o Lightning mesh

g Lightning mesh
v -0.1000214 -0.8447495 -0.1000061
v 0 0.1552505 -6.103516E-05
v -0.1999664 0.1552505 -6.103516E-05
v -0.1999664 0.1552505 -0.2001038
v 0 0.1552505 -0.2001038
v -1.444016 24.85793 1.249939
v -1.644058 24.85793 1.249939
v -1.444016 24.85793 1.049896
v -1.644058 24.85793 1.049896
v 0.8228302 2.205211 -6.103516E-05
v 0.6227875 2.205211 -6.103516E-05
v 0.8228302 2.205211 -0.2001038
v 0.6227875 2.205211 -0.2001038
v 0.8228302 2.362009 -6.103516E-05
v 0.6227875 2.362009 -6.103516E-05
v 0.6227875 2.362009 -0.2001038
v 0.8228302 2.362009 -0.2001038
v 5.143814 2.536676 -1.114105
v 5.143814 2.536676 -0.9142151
v 5.143814 2.693474 -1.114105
v 5.143814 2.693474 -0.9142151
v 8.662949 1.881395 -0.5380859
v 0 3.611757 0
v -0.2000122 3.611757 0
v 0 3.611757 -0.2000122
v -0.2000122 3.611757 -0.2000122
v -1.12709 4.778754 -0.7466736
v -1.327133 4.778754 -0.7466736
v -1.12709 4.778754 -0.9467163
v -1.327133 4.778754 -0.9467163
v -1.12709 4.978603 -0.7466736
v -1.327133 4.978603 -0.7466736
v -1.12709 4.978603 -0.9467163
v -1.327133 4.978603 -0.9467163
v 0 6.434787 0
v -0.2000122 6.434787 0
v 0 6.434787 -0.2000122
v -0.2000122 6.434787 -0.2000122
v 0 7.786768 -0.8844604
v -0.2000427 7.786768 -0.8844604
v 0 7.786768 -1.084503
v -0.2000427 7.786768 -1.084503
v 0 7.947891 -0.8844604
v -0.2000427 7.947891 -0.8844604
v 0 7.947891 -1.084503
v -0.2000427 7.947891 -1.084503
v -2.968826 4.071414 -1.210999
v -2.968826 4.071414 -1.411041
v -2.968826 4.271263 -1.210999
v -2.968826 4.271263 -1.411041
v -4.072952 3.577153 -0.8769836
v -0.2000427 7.350744 -4.353851
v 0 7.350744 -4.353851
v -0.2000427 7.511868 -4.353851
v 0 7.511868 -4.353851
v -0.1000214 6.529496 -6.262115
v 0 9.365588 2.486359
v -0.2000427 9.365588 2.486359
v 0 9.365588 2.286316
v -0.2000427 9.365588 2.286316
v 0 10.72295 2.486359
v -0.2000427 10.72295 2.486359
v 0 10.72295 2.286316
v -0.2000427 10.72295 2.286316
v 0 10.86032 2.286316
v 0 10.86032 2.486359
v -0.2000427 10.86032 2.486359
v -0.2000427 10.86032 2.286316
v -0.03135681 10.80157 5.326935
v -0.1686859 10.80157 5.326935
v -0.03135681 10.89592 5.326935
v -0.1686859 10.89592 5.326935
v -0.1000214 10.10767 7.326294
v 2.048645 12.52389 -6.103516E-05
v 1.848602 12.52389 -6.103516E-05
v 2.048645 12.52389 -0.1999512
v 1.848602 12.52389 -0.1999512
v 2.067566 14.38857 -6.103516E-05
v 1.848602 14.39096 -6.103516E-05
v 2.067566 14.38857 -0.1999512
v 1.848602 14.39096 -0.1999512
v 2.048645 14.46506 -6.103516E-05
v 1.848602 14.46506 -6.103516E-05
v 1.848602 14.46506 -0.1999512
v 2.048645 14.46506 -0.1999512
v 3.753204 14.25385 -0.1999512
v 3.753204 14.25385 -6.103516E-05
v 3.809356 14.33037 -0.1999529
v 3.809356 14.33037 3.897666E-05
v 12.32274 12.00933 -0.1000587
v -2.641296 16.90898 -2.114014
v -2.875214 16.90898 -2.114014
v -2.641296 16.90898 -2.347931
v -2.875214 16.90898 -2.347931
v -2.658234 18.64936 -2.130951
v -2.858276 18.64936 -2.130951
v -2.658234 18.64936 -2.330994
v -2.858276 18.64936 -2.330994
v -2.658234 18.8365 -2.130951
v -2.858276 18.8365 -2.130951
v -2.658234 18.8365 -2.330994
v -2.858276 18.8365 -2.330994
v -8.019638 18.25088 -2.100433
v -8.019638 18.25088 -2.300476
v -8.037109 18.37173 -2.100433
v -8.037109 18.37173 -2.300476
v -11.73035 17.39093 -2.074951
v -1.444016 21.88539 1.249939
v -1.644058 21.88539 1.249939
v -1.444016 21.88539 1.049896
v -1.644058 21.88539 1.049896
v -1.444016 24.68882 1.249939
v -1.644058 24.68882 1.249939
v -1.444016 24.68882 1.049896
v -1.644058 24.68882 1.049896
v -2.596893 24.02443 -4.605469
v -2.396774 24.02443 -4.605469
v -2.596893 24.19354 -4.605469
v -2.396774 24.19354 -4.605469
v -2.557983 23.06791 -7.393097

vt -0.1000214 -0.8505073
vt 0 0.1544748
vt -0.1999664 0.1544748
vt -0.1000061 -0.8306146
vt -6.103516E-05 0.1743675
vt -0.2001038 0.1743675
vt 0.1000214 -0.8305883
vt 0.1999664 0.1744089
vt 0.1000061 -0.8505099
vt 0.2001038 0.1544797
vt 1.444016 1.249939
vt 1.644058 1.249939
vt 1.444016 1.049896
vt 1.644058 1.049896
vt 0 0.1552505
vt -0.1999664 0.1552505
vt 0.8228302 2.205211
vt 0.6227875 2.205211
vt 0.2001038 0.1440775
vt 6.103516E-05 0.1440775
vt 0.2001038 2.353011
vt 6.103516E-05 2.353011
vt -6.103516E-05 0.06959753
vt -0.2001038 0.06959753
vt -6.103516E-05 2.278503
vt -0.2001038 2.278503
vt 0.1999664 0.1552505
vt -0.6227875 2.205211
vt -0.8228302 2.205211
vt 0.8228302 2.362009
vt 0.6227875 2.362009
vt -6.103516E-05 2.205211
vt -0.2001038 2.205211
vt -6.103516E-05 2.362009
vt -0.2001038 2.362009
vt -0.6227875 2.362009
vt -0.8228302 2.362009
vt 0.9890873 -0.2001038
vt 0.9890873 -6.103516E-05
vt 5.322766 -1.114105
vt 5.322766 -0.9142151
vt -0.8464286 2.362009
vt -0.8464286 2.205211
vt -5.263022 2.693474
vt -5.263022 2.536676
vt 0.8050246 2.205211
vt 0.8050246 2.362009
vt 5.22165 2.536676
vt 5.22165 2.693474
vt -1.00108 -6.103516E-05
vt -1.00108 -0.2001038
vt -5.334759 -0.9142151
vt -5.334759 -1.114105
vt 4.592533 -1.114105
vt 4.592533 -0.9142151
vt 8.172156 -0.5380859
vt -4.896298 2.693474
vt -4.896298 2.536676
vt -8.462263 1.881395
vt 5.017524 2.536676
vt 5.017524 2.693474
vt 8.556702 1.881395
vt -4.406464 -0.9142151
vt -4.406464 -1.114105
vt -8.018082 -0.5380859
vt 0 3.611757
vt -0.2000122 3.611757
vt 0.2001038 1.520326
vt 6.103516E-05 1.520326
vt 0.2000122 3.016628
vt 0 3.016628
vt -6.103516E-05 1.630362
vt -0.2001038 1.630362
vt 0 3.126647
vt -0.2000122 3.126647
vt -0.6227875 2.361994
vt -0.8228302 2.361994
vt 0.2000122 3.611742
vt 0 3.042322
vt -0.2000122 3.042322
vt -1.12709 4.427748
vt -1.327133 4.427748
vt 0.2000122 2.597931
vt 0 2.597931
vt 0.9467163 4.220342
vt 0.7466736 4.220342
vt 0 2.736848
vt -0.2000122 2.736848
vt -0.7466736 4.35928
vt -0.9467163 4.35928
vt 0.2000122 3.150085
vt 0 3.150085
vt 1.327133 4.535528
vt 1.12709 4.535528
vt -1.12709 4.778754
vt -1.327133 4.778754
vt -1.12709 4.978603
vt -1.327133 4.978603
vt 0.9467163 4.778754
vt 0.7466736 4.778754
vt 0.9467163 4.978603
vt 0.7466736 4.978603
vt 1.327133 4.778754
vt 1.12709 4.778754
vt 1.327133 4.978603
vt 1.12709 4.978603
vt -1.12709 4.089468
vt -1.327133 4.089468
vt 0 5.725925
vt -0.2000122 5.725925
vt 0.9467163 3.247195
vt 0.7466736 3.247195
vt 0.2000122 5.088609
vt 0 5.088609
vt -0.7466736 3.124699
vt -0.9467163 3.124699
vt 0 4.966132
vt -0.2000122 4.966132
vt 1.327133 3.998142
vt 1.12709 3.998142
vt 0.2000122 5.634614
vt 0 5.634614
vt 0 5.384859
vt -0.2000122 5.384859
vt 0 7.000446
vt -0.2000427 7.000446
vt 0.2000122 6.434787
vt 0 6.434787
vt 1.084503 7.786768
vt 0.8844604 7.786768
vt -0.2000122 6.434792
vt -0.8844604 7.786772
vt -1.084503 7.786772
vt 0.2000122 5.494303
vt 0 5.494303
vt 0.2000427 7.109907
vt 0 7.109907
vt 0 7.786768
vt -0.2000427 7.786768
vt 0 7.947891
vt -0.2000427 7.947891
vt 1.084503 7.947891
vt 0.8844604 7.947891
vt -0.8844604 7.947891
vt -1.084503 7.947891
vt 0.6721106 -0.7466736
vt 0.6721106 -0.9467163
vt -1.115482 -1.210999
vt -1.115482 -1.411041
vt -1.48025 4.978603
vt -1.48025 4.778754
vt -3.186343 4.271263
vt -3.186343 4.071414
vt 1.534693 4.778754
vt 1.534693 4.978603
vt 3.240786 4.071414
vt 3.240786 4.271263
vt -0.7511898 -0.9467163
vt -0.7511898 -0.7466736
vt 1.036403 -1.411041
vt 1.036403 -1.210999
vt -1.046221 -1.210999
vt -1.046221 -1.411041
vt -2.255926 -0.8769836
vt -2.490993 4.271263
vt -2.490993 4.071414
vt -3.644536 3.577153
vt 2.058192 4.071414
vt 2.058192 4.271263
vt 3.284696 3.577153
vt 0.2401765 -1.411041
vt 0.2401765 -1.210999
vt 1.544355 -0.8769836
vt -0.2000427 -0.04560006
vt 0 -0.04560006
vt -0.2000427 -3.343896
vt 0 -3.343896
vt -4.353851 7.511868
vt -4.353851 7.350744
vt 4.353851 7.350744
vt 4.353851 7.511868
vt 0 -0.0243001
vt 0.2000427 -0.0243001
vt 0 -3.322596
vt 0.2000427 -3.322596
vt -0.2000427 -1.093399
vt 0 -1.093399
vt -0.1000214 -3.170878
vt -4.337412 7.511868
vt -4.337412 7.350744
vt -6.248296 6.529496
vt 4.347883 7.350744
vt 4.347883 7.511868
vt 6.258767 6.529496
vt 0 -0.4327744
vt 0.2000427 -0.4327744
vt 0.1000214 -2.579056
vt 0 2.266002
vt -0.2000427 2.266002
vt 0 5.922815
vt -0.2000427 5.922815
vt -2.286316 9.365588
vt -2.486359 9.365588
vt 2.486359 9.365588
vt 2.286316 9.365588
vt 0.2000427 2.081604
vt 0 2.081604
vt 0.2000427 5.738418
vt 0 5.738418
vt 0 9.365588
vt -0.2000427 9.365588
vt 0 10.72295
vt -0.2000427 10.72295
vt -2.286316 10.72295
vt -2.486359 10.72295
vt 2.486359 10.72295
vt 2.286316 10.72295
vt 0.2000427 9.365588
vt 0.2000427 10.72295
vt -2.286316 10.86032
vt -2.486359 10.86032
vt 2.486359 10.86032
vt 2.286316 10.86032
vt 0.2000427 10.86032
vt 0 10.86032
vt 0 2.782056
vt -0.2000427 2.782056
vt -0.03135681 5.62372
vt -0.1686859 5.62372
vt -5.326956 10.89592
vt -5.326956 10.80157
vt 2.483999 10.72295
vt 2.483999 10.86032
vt 5.324749 10.80157
vt 5.324749 10.89592
vt 0.2000427 2.622268
vt 0 2.622268
vt 0.1686859 5.463067
vt 0.03135681 5.463067
vt -0.03135681 1.490876
vt -0.1686859 1.490876
vt -0.1000214 3.607226
vt -5.324872 10.89592
vt -5.324872 10.80157
vt -7.32541 10.10767
vt 5.318007 10.80157
vt 5.318007 10.89592
vt 7.318544 10.10767
vt 0.1686859 0.9593294
vt 0.03135681 0.9593294
vt 0.1000214 3.108464
vt 0 -3.972706
vt 0.2000427 -3.972706
vt -2.048645 -6.964321
vt -1.848602 -6.964321
vt 6.846081 2.286316
vt 6.846081 2.486359
vt 9.485101 -0.1999512
vt 9.485101 -6.103516E-05
vt -6.690789 2.486359
vt -6.690789 2.286316
vt -9.329809 -6.103516E-05
vt -9.329809 -0.1999512
vt -0.2000427 -4.13926
vt 0 -4.13926
vt 1.848602 -7.130748
vt 2.048645 -7.130748
vt 2.048645 12.52389
vt 1.848602 12.52389
vt 2.067566 14.38857
vt 1.848602 14.39096
vt 0.1999512 12.54403
vt 6.103516E-05 12.54403
vt 0.1999512 14.4088
vt 6.103516E-05 14.4088
vt -6.103516E-05 12.52389
vt -0.1999512 12.52389
vt -6.103516E-05 14.39096
vt -0.1999512 14.39096
vt -1.848602 12.52389
vt -2.048645 12.52389
vt -1.848602 14.39096
vt -2.067566 14.38857
vt 2.048645 14.46506
vt 1.848602 14.46506
vt -6.103516E-05 14.46506
vt -0.1999512 14.46506
vt -1.848602 14.46506
vt -2.048645 14.46506
vt 0.9147004 -0.1999512
vt 0.9147004 -6.103516E-05
vt 2.605714 -0.1999512
vt 2.605714 -6.103516E-05
vt -3.809356 14.33037
vt -3.753205 14.25385
vt 3.753204 14.25385
vt 3.809356 14.33037
vt -0.9393255 -6.103516E-05
vt -0.9393255 -0.1999512
vt -2.705181 3.897666E-05
vt -2.705181 -0.1999529
vt 0.01922146 -0.1999512
vt 0.01922146 -6.103516E-05
vt 8.877823 -0.1000587
vt -3.80722 14.33171
vt -3.751071 14.25518
vt -12.32118 12.01061
vt 12.32314 12.00906
vt 0.09414827 3.897666E-05
vt 0.09414827 -0.1999529
vt -8.729964 -0.1000587
vt 2.048645 10.94023
vt 1.848602 10.94023
vt -2.641296 14.17157
vt -2.875214 14.17157
vt 4.867802 -0.1999512
vt 4.867802 -6.103516E-05
vt 10.15631 -2.347931
vt 10.15631 -2.114014
vt -5.004912 -6.103516E-05
vt -5.004912 -0.1999512
vt -10.32348 -2.114014
vt -10.32348 -2.347931
vt -1.848602 10.997
vt -2.048645 10.997
vt 2.875214 14.2507
vt 2.641296 14.2507
vt -2.641296 16.92875
vt -2.875214 16.92875
vt -2.658234 18.66921
vt -2.858276 18.66921
vt 2.347931 16.93389
vt 2.114014 16.93389
vt 2.330994 18.67434
vt 2.130951 18.67434
vt -2.114014 16.8802
vt -2.347931 16.8802
vt -2.130951 18.62066
vt -2.330994 18.62066
vt 2.875214 16.88533
vt 2.641296 16.88533
vt 2.858276 18.62579
vt 2.658234 18.62579
vt -2.658234 18.64936
vt -2.858276 18.64936
vt -2.658234 18.8365
vt -2.858276 18.8365
vt 2.330994 18.64936
vt 2.130951 18.64936
vt 2.330994 18.8365
vt 2.130951 18.8365
vt 2.858276 18.64936
vt 2.658234 18.64936
vt 2.858276 18.8365
vt 2.658234 18.8365
vt -1.414264 -2.130951
vt -1.414264 -2.330994
vt -6.590985 -2.100433
vt -6.590985 -2.300476
vt -2.84567 18.8365
vt -2.84567 18.64936
vt -8.024592 18.37173
vt -8.007122 18.25088
vt 2.844444 18.64936
vt 2.844444 18.8365
vt 8.005897 18.25088
vt 8.023367 18.37173
vt 1.163166 -2.330994
vt 1.163166 -2.130951
vt 6.362812 -2.300476
vt 6.362812 -2.100433
vt -3.692173 -2.100433
vt -3.692173 -2.300476
vt -7.501225 -2.074951
vt -8.022976 18.37379
vt -8.005505 18.25294
vt -11.7163 17.39299
vt 7.870757 18.27371
vt 7.888198 18.39457
vt 11.58831 17.41372
vt 3.052359 -2.300476
vt 3.052359 -2.100433
vt 6.873613 -2.074951
vt -2.658234 11.03237
vt -2.858276 11.03237
vt -1.444016 15.58497
vt -1.644058 15.58497
vt 2.330994 16.51628
vt 2.130951 16.51628
vt -1.049896 19.79806
vt -1.249939 19.79806
vt -2.130951 16.44227
vt -2.330994 16.44227
vt 1.249939 19.72405
vt 1.049896 19.72405
vt 2.858276 10.88381
vt 2.658234 10.88381
vt 1.644058 15.43641
vt 1.444016 15.43641
vt -1.444016 21.88539
vt -1.644058 21.88539
vt -1.444016 24.68882
vt -1.644058 24.68882
vt -1.049896 21.88539
vt -1.249939 21.88539
vt -1.049896 24.68882
vt -1.249939 24.68882
vt 1.249939 21.88539
vt 1.049896 21.88539
vt 1.249939 24.68882
vt 1.049896 24.68882
vt 1.644058 21.88539
vt 1.444016 21.88539
vt 1.644058 24.68882
vt 1.444016 24.68882
vt -1.444016 24.85793
vt -1.644058 24.85793
vt -1.049896 24.85793
vt -1.249939 24.85793
vt 1.249939 24.85793
vt 1.049896 24.85793
vt -1.644058 3.92335
vt -1.444016 3.92335
vt -2.596893 -1.770908
vt -2.396774 -1.770908
vt 0.7621579 24.85793
vt 0.7621579 24.68882
vt -4.972914 24.19354
vt -4.972914 24.02443
vt -0.7954143 24.68882
vt -0.7954143 24.85793
vt 4.939645 24.02443
vt 4.939645 24.19354
vt 1.444016 3.943082
vt 1.644058 3.943082
vt 2.396774 -1.751175
vt 2.596893 -1.751175
vt -2.596893 3.441105
vt -2.396774 3.441105
vt -2.557983 0.4939362
vt -4.568776 24.19354
vt -4.568776 24.02443
vt -7.356676 23.06791
vt 4.736162 24.02443
vt 4.736162 24.19354
vt 7.528447 23.06791
vt 2.396774 4.788193
vt 2.596893 4.788193
vt 2.557983 1.781878

vn 0 -0.0994496 0.9950426
vn -0.9950426 -0.0994496 0
vn 0 -0.09959993 -0.9950276
vn 0.9950351 -0.09952477 0
vn 0 1 0
vn 0 0 1
vn 0.9280318 -0.372501 0
vn -0.9280437 0.3724713 0
vn 0 0 -1
vn -1 0 0
vn 0.07648583 -0.9970707 0
vn -0.2069472 0 -0.9783521
vn 0.2069802 0 0.9783452
vn -0.07648583 0.9970707 0
vn -0.1830588 -0.983102 0
vn 0.1615325 0 -0.9868674
vn -0.1062758 0 0.9943367
vn 0.2248519 0.974393 0
vn 0.8352244 0.5499092 0
vn -0.8352338 -0.549895 0
vn 0 0.5389488 0.8423385
vn 0.7192985 0.6947011 0
vn -0.7192891 -0.6947109 0
vn 0 -0.5389645 -0.8423285
vn 1 0 0
vn 0 -0.4562744 0.8898392
vn 0.7907967 -0.6120789 0
vn -0.7907887 0.6120893 0
vn 0 0.4562892 -0.8898316
vn 0 0.5474545 0.8368355
vn 0 -0.5474677 -0.8368269
vn 0.3956944 -0.9183823 0
vn -0.2721569 0 0.9622529
vn 0.2721569 0 -0.9622529
vn -0.3956944 0.9183823 0
vn 0.4085792 -0.9127229 0
vn 0.2895558 0 0.9571611
vn -0.4354309 0 -0.9002222
vn -0.5322197 0.8466063 0
vn 0 -0.9912235 0.1321967
vn 0 0.9912235 -0.1321967
vn 0 -0.9185479 0.3953098
vn -0.9986292 0 -0.05234299
vn 0.9986292 0 -0.05234299
vn 0 0.8891024 -0.4577084
vn 0 -0.9217913 0.3876864
vn 0 0.9217913 -0.3876864
vn 0 -0.9996173 0.02766486
vn 0.9999391 0 0.01103822
vn -0.9999391 0 0.01103822
vn 0 0.9999214 -0.01253225
vn 0 -0.9447203 -0.3278772
vn 0.9994108 0 0.03432304
vn -0.9994108 0 0.03432304
vn 0 0.9303091 0.3667765
vn 0 0.8311296 0.5560789
vn 0.6303758 -0.7762902 0
vn -0.6303758 0.7762902 0
vn 0 -0.8311138 -0.5561025
vn 0.9999485 -0.0101465 0
vn -0.07966699 -0.9968215 0
vn -7.422573E-05 -0.0005990179 0.9999996
vn -0.0001484515 -0.001198036 0.9999993
vn 0.07627697 0.9970867 0
vn -0.2533711 -0.9673691 0
vn 0.009771914 -0.007192813 -0.9999264
vn 0.009499913 -0.008277887 0.9999207
vn 0.2630333 0.9647868 0
vn 0 0.6542041 0.7563181
vn 0.4621187 0.8868181 0
vn -0.4595066 -0.8881744 0
vn 0 -0.6601657 -0.75112
vn 0 0.009731495 0.9999527
vn 0.9999527 0.009731495 0
vn -0.9999527 0.009731495 0
vn 0 0.009731495 -0.9999527
vn 0.0769749 -0.9970331 0
vn 0.00589265 0 0.9999827
vn 0.005847334 0.0008453132 0.9999825
vn -0.005912596 0 -0.9999825
vn -0.00581718 -0.0008409541 -0.9999827
vn -0.08938335 0.9959973 0
vn 0.2257651 -0.9741818 0
vn 0.00664444 0.000960546 0.9999775
vn -0.05870308 -0.008486344 -0.9982394
vn -0.2566713 0.9664987 0
vn 0 -0.7426282 0.669704
vn 0.9290367 -0.3699876 0
vn -0.9290367 0.3699876 0
vn 0 0.7426282 -0.669704
vn 0 -0.9931699 0.1166773
vn -0.9861019 0 0.1661418
vn 0.9861041 0 -0.1661289
vn 0 0.9931699 -0.1166773
vn 0 -0.9458666 0.3245556
vn -0.9999026 0 -0.01395671
vn 0.998332 0 -0.05773374
vn 0 0.9272575 -0.3744242

usemtl DefaultHDMaterial
f 2/2/1 3/3/1 1/1/1
f 3/5/2 4/6/2 1/4/2
f 4/8/3 5/5/3 1/7/3
f 5/10/4 2/2/4 1/9/4
f 22/56/15 19/55/15 18/54/15
f 22/59/16 18/58/16 20/57/16
f 22/62/17 21/61/17 19/60/17
f 22/65/18 20/64/18 21/63/18
f 51/164/36 48/163/36 47/162/36
f 51/167/37 47/166/37 49/165/37
f 51/170/38 50/169/38 48/168/38
f 51/173/39 49/172/39 50/171/39
f 56/188/42 53/187/42 52/186/42
f 56/191/43 52/190/43 54/189/43
f 56/194/44 55/193/44 53/192/44
f 56/197/45 54/196/45 55/195/45
f 73/242/52 70/241/52 69/240/52
f 73/245/53 69/244/53 71/243/53
f 73/248/54 72/247/54 70/246/54
f 73/251/55 71/250/55 72/249/55
f 90/304/65 87/303/65 86/302/65
f 90/307/66 86/306/66 88/305/66
f 90/308/67 89/297/67 87/296/67
f 90/311/68 88/310/68 89/309/68
f 107/374/83 104/373/83 103/372/83
f 107/377/84 103/376/84 105/375/84
f 107/380/85 106/379/85 104/378/85
f 107/383/86 105/382/86 106/381/86
f 120/440/95 117/439/95 116/438/95
f 120/443/96 116/442/96 118/441/96
f 120/446/97 119/445/97 117/444/97
f 120/449/98 118/448/98 119/447/98
f 9/14/5 7/12/5 6/11/5
f 6/11/5 8/13/5 9/14/5
f 11/18/6 3/16/6 2/15/6
f 2/15/6 10/17/6 11/18/6
f 10/22/7 2/20/7 5/19/7
f 5/19/7 12/21/7 10/22/7
f 13/26/8 4/24/8 3/23/8
f 3/23/8 11/25/8 13/26/8
f 12/29/9 5/15/9 4/27/9
f 4/27/9 13/28/9 12/29/9
f 15/31/6 11/18/6 10/17/6
f 10/17/6 14/30/6 15/31/6
f 16/35/10 13/33/10 11/32/10
f 11/32/10 15/34/10 16/35/10
f 17/37/9 12/29/9 13/28/9
f 13/28/9 16/36/9 17/37/9
f 19/41/11 10/39/11 12/38/11
f 12/38/11 18/40/11 19/41/11
f 18/45/12 12/43/12 17/42/12
f 17/42/12 20/44/12 18/45/12
f 21/49/13 14/47/13 10/46/13
f 10/46/13 19/48/13 21/49/13
f 20/53/14 17/51/14 14/50/14
f 14/50/14 21/52/14 20/53/14
f 24/67/6 15/31/6 14/30/6
f 14/30/6 23/66/6 24/67/6
f 23/71/19 14/69/19 17/68/19
f 17/68/19 25/70/19 23/71/19
f 26/75/20 16/73/20 15/72/20
f 15/72/20 24/74/20 26/75/20
f 25/66/9 17/77/9 16/76/9
f 16/76/9 26/78/9 25/66/9
f 28/82/21 24/80/21 23/79/21
f 23/79/21 27/81/21 28/82/21
f 27/86/22 23/84/22 25/83/22
f 25/83/22 29/85/22 27/86/22
f 30/90/23 26/88/23 24/87/23
f 24/87/23 28/89/23 30/90/23
f 29/94/24 25/92/24 26/91/24
f 26/91/24 30/93/24 29/94/24
f 32/98/6 28/96/6 27/95/6
f 27/95/6 31/97/6 32/98/6
f 31/102/25 27/100/25 29/99/25
f 29/99/25 33/101/25 31/102/25
f 33/106/9 29/104/9 30/103/9
f 30/103/9 34/105/9 33/106/9
f 36/110/26 32/108/26 31/107/26
f 31/107/26 35/109/26 36/110/26
f 35/114/27 31/112/27 33/111/27
f 33/111/27 37/113/27 35/114/27
f 38/118/28 34/116/28 32/115/28
f 32/115/28 36/117/28 38/118/28
f 37/122/29 33/120/29 34/119/29
f 34/119/29 38/121/29 37/122/29
f 40/126/30 36/124/30 35/123/30
f 35/123/30 39/125/30 40/126/30
f 39/130/25 35/128/25 37/127/25
f 37/127/25 41/129/25 39/130/25
f 42/133/10 38/131/10 36/128/10
f 36/128/10 40/132/10 42/133/10
f 41/137/31 37/135/31 38/134/31
f 38/134/31 42/136/31 41/137/31
f 44/141/6 40/139/6 39/138/6
f 39/138/6 43/140/6 44/141/6
f 43/143/25 39/130/25 41/129/25
f 41/129/25 45/142/25 43/143/25
f 46/145/10 42/133/10 40/132/10
f 40/132/10 44/144/10 46/145/10
f 48/149/32 30/147/32 28/146/32
f 28/146/32 47/148/32 48/149/32
f 47/153/33 28/151/33 32/150/33
f 32/150/33 49/152/33 47/153/33
f 50/157/34 34/155/34 30/154/34
f 30/154/34 48/156/34 50/157/34
f 49/161/35 32/159/35 34/158/35
f 34/158/35 50/160/35 49/161/35
f 53/177/40 41/175/40 42/174/40
f 42/174/40 52/176/40 53/177/40
f 52/179/10 42/133/10 46/145/10
f 46/145/10 54/178/10 52/179/10
f 55/181/25 45/142/25 41/129/25
f 41/129/25 53/180/25 55/181/25
f 54/185/41 46/183/41 45/182/41
f 45/182/41 55/184/41 54/185/41
f 58/201/46 44/199/46 43/198/46
f 43/198/46 57/200/46 58/201/46
f 57/203/25 43/143/25 45/142/25
f 45/142/25 59/202/25 57/203/25
f 60/205/10 46/145/10 44/144/10
f 44/144/10 58/204/10 60/205/10
f 59/209/47 45/207/47 46/206/47
f 46/206/47 60/208/47 59/209/47
f 62/213/6 58/211/6 57/210/6
f 57/210/6 61/212/6 62/213/6
f 61/215/25 57/203/25 59/202/25
f 59/202/25 63/214/25 61/215/25
f 64/217/10 60/205/10 58/204/10
f 58/204/10 62/216/10 64/217/10
f 63/212/9 59/210/9 60/218/9
f 60/218/9 64/219/9 63/212/9
f 66/221/25 61/215/25 63/214/25
f 63/214/25 65/220/25 66/221/25
f 68/223/10 64/217/10 62/216/10
f 62/216/10 67/222/10 68/223/10
f 65/225/9 63/212/9 64/219/9
f 64/219/9 68/224/9 65/225/9
f 70/229/48 62/227/48 61/226/48
f 61/226/48 69/228/48 70/229/48
f 69/231/49 61/215/49 66/221/49
f 66/221/49 71/230/49 69/231/49
f 72/235/50 67/233/50 62/232/50
f 62/232/50 70/234/50 72/235/50
f 71/239/51 66/237/51 67/236/51
f 67/236/51 72/238/51 71/239/51
f 75/255/56 67/253/56 66/252/56
f 66/252/56 74/254/56 75/255/56
f 74/259/57 66/257/57 65/256/57
f 65/256/57 76/258/57 74/259/57
f 77/263/58 68/261/58 67/260/58
f 67/260/58 75/262/58 77/263/58
f 76/267/59 65/265/59 68/264/59
f 68/264/59 77/266/59 76/267/59
f 79/271/6 75/269/6 74/268/6
f 74/268/6 78/270/6 79/271/6
f 78/275/60 74/273/60 76/272/60
f 76/272/60 80/274/60 78/275/60
f 81/279/10 77/277/10 75/276/10
f 75/276/10 79/278/10 81/279/10
f 80/283/9 76/281/9 77/280/9
f 77/280/9 81/282/9 80/283/9
f 83/285/6 79/271/6 78/270/6
f 78/270/6 82/284/6 83/285/6
f 84/287/10 81/279/10 79/278/10
f 79/278/10 83/286/10 84/287/10
f 85/289/9 80/283/9 81/282/9
f 81/282/9 84/288/9 85/289/9
f 87/293/61 78/291/61 80/290/61
f 80/290/61 86/292/61 87/293/61
f 86/295/9 80/283/9 85/289/9
f 85/289/9 88/294/9 86/295/9
f 89/297/63 82/284/62 78/270/6
f 78/270/6 87/296/62 89/297/63
f 88/301/64 85/299/64 82/298/64
f 82/298/64 89/300/64 88/301/64
f 92/315/69 83/313/69 82/312/69
f 82/312/69 91/314/69 92/315/69
f 91/319/70 82/317/70 85/316/70
f 85/316/70 93/318/70 91/319/70
f 94/323/71 84/321/71 83/320/71
f 83/320/71 92/322/71 94/323/71
f 93/327/72 85/325/72 84/324/72
f 84/324/72 94/326/72 93/327/72
f 96/331/73 92/329/73 91/328/73
f 91/328/73 95/330/73 96/331/73
f 95/335/74 91/333/74 93/332/74
f 93/332/74 97/334/74 95/335/74
f 98/339/75 94/337/75 92/336/75
f 92/336/75 96/338/75 98/339/75
f 97/343/76 93/341/76 94/340/76
f 94/340/76 98/342/76 97/343/76
f 100/347/6 96/345/6 95/344/6
f 95/344/6 99/346/6 100/347/6
f 99/351/25 95/349/25 97/348/25
f 97/348/25 101/350/25 99/351/25
f 101/355/9 97/353/9 98/352/9
f 98/352/9 102/354/9 101/355/9
f 104/359/77 98/357/77 96/356/77
f 96/356/77 103/358/77 104/359/77
f 103/363/79 96/361/78 100/360/78
f 100/360/78 105/362/78 103/363/79
f 106/367/81 102/365/80 98/364/80
f 98/364/80 104/366/80 106/367/81
f 105/371/82 100/369/82 102/368/82
f 102/368/82 106/370/82 105/371/82
f 109/387/87 100/385/87 99/384/87
f 99/384/87 108/386/87 109/387/87
f 108/391/88 99/389/88 101/388/88
f 101/388/88 110/390/88 108/391/88
f 111/395/89 102/393/89 100/392/89
f 100/392/89 109/394/89 111/395/89
f 110/399/90 101/397/90 102/396/90
f 102/396/90 111/398/90 110/399/90
f 113/403/6 109/401/6 108/400/6
f 108/400/6 112/402/6 113/403/6
f 112/407/25 108/405/25 110/404/25
f 110/404/25 114/406/25 112/407/25
f 115/411/10 111/409/10 109/408/10
f 109/408/10 113/410/10 115/411/10
f 114/415/9 110/413/9 111/412/9
f 111/412/9 115/414/9 114/415/9
f 7/417/6 113/403/6 112/402/6
f 112/402/6 6/416/6 7/417/6
f 6/419/25 112/407/25 114/406/25
f 114/406/25 8/418/25 6/419/25
f 9/421/10 115/411/10 113/410/10
f 113/410/10 7/420/10 9/421/10
f 117/425/91 114/423/91 115/422/91
f 115/422/91 116/424/91 117/425/91
f 116/429/92 115/427/92 9/426/92
f 9/426/92 118/428/92 116/429/92
f 119/433/93 8/431/93 114/430/93
f 114/430/93 117/432/93 119/433/93
f 118/437/94 9/435/94 8/434/94
f 8/434/94 119/436/94 118/437/94

