# ProBuilder 4.5.2
# https://unity3d.com/unity/features/worldbuilding/probuilder
# 16/12/2021 01:38:44

mtllib ./Tornade.mtl
o Tornade

g Tornade
v -0.05010126 -0.04573417 2.967197E-05
v 0.1042528 0.1249999 2.967197E-05
v 0.05493578 -0.04573417 0.3232704
v 0.1798291 0.1249999 0.23255
v 0.3299386 -0.04573417 0.5231285
v 0.3776369 0.1249999 0.3762925
v 0.6697981 -0.04573417 0.5231285
v 0.6220998 0.1249999 0.3762925
v 0.9448009 -0.04573417 0.3232704
v 0.8199076 0.1249999 0.23255
v 1.049874 -0.04573417 2.967197E-05
v 0.8954839 0.1249999 2.967197E-05
v 0.9448009 -0.04573417 -0.323211
v 0.8199076 0.1249999 -0.2324907
v 0.6697981 -0.04573417 -0.5230691
v 0.6220998 0.1249999 -0.3762331
v 0.3299386 -0.04573417 -0.5230691
v 0.3776369 0.1249999 -0.3762331
v 0.05493578 -0.04573417 -0.323211
v 0.1798291 0.1249999 -0.2324907
v 0.1449727 0.2500001 2.967197E-05
v 0.2127791 0.2500001 0.2086649
v 0.3902989 0.2500001 0.337659
v 0.6096896 0.2500001 0.337659
v 0.7871734 0.2500001 0.2086649
v 0.8549799 0.2500001 2.967197E-05
v 0.7871734 0.2500001 -0.2086055
v 0.6096896 0.2500001 -0.3375997
v 0.3902989 0.2500001 -0.3375997
v 0.2127791 0.2500001 -0.2086055
v 0.1852249 0.3749999 2.967197E-05
v 0.2453334 0.3749999 0.1849956
v 0.4027091 0.3749999 0.2993852
v 0.5972075 0.3749999 0.2993852
v 0.7545832 0.3749999 0.1849956
v 0.8146917 0.3749999 2.967197E-05
v 0.7545832 0.3749999 -0.1849362
v 0.5972075 0.3749999 -0.2993259
v 0.4027091 0.3749999 -0.2993259
v 0.2453334 0.3749999 -0.1849362
v 0.1684621 0.5000001 2.967197E-05
v 0.2317721 0.5000001 0.1948518
v 0.3975292 0.5000001 0.3152847
v 0.6023874 0.5000001 0.3152847
v 0.7681445 0.5000001 0.1948518
v 0.8314545 0.5000001 2.967197E-05
v 0.7681445 0.5000001 -0.1947924
v 0.6023874 0.5000001 -0.3152253
v 0.3975292 0.5000001 -0.3152253
v 0.2317721 0.5000001 -0.1947924
v 0.1549368 0.6249999 2.967197E-05
v 0.2208367 0.6249999 0.2028375
v 0.3933565 0.6249999 0.3282344
v 0.6065961 0.6249999 0.3282344
v 0.7791158 0.6249999 0.2028375
v 0.8450517 0.6249999 2.967197E-05
v 0.7791158 0.6249999 -0.2027781
v 0.6065961 0.6249999 -0.3281751
v 0.3933565 0.6249999 -0.3281751
v 0.2208367 0.6249999 -0.2027781
v 0.08615912 0.7500001 2.967197E-05
v 0.1651887 0.7500001 0.2432695
v 0.3720973 0.7500001 0.3936308
v 0.6278553 0.7500001 0.3936308
v 0.8347638 0.7500001 0.2432695
v 0.9137934 0.7500001 2.967197E-05
v 0.8347638 0.7500001 -0.2432102
v 0.6278553 0.7500001 -0.3935714
v 0.3720973 0.7500001 -0.3935714
v 0.1651887 0.7500001 -0.2432102
v 0.04752563 0.8749999 2.967197E-05
v 0.1339654 0.8749999 0.2659317
v 0.3601547 0.8749999 0.4303218
v 0.6397619 0.8749999 0.4303218
v 0.8659872 0.8749999 0.2659317
v 0.9524269 0.8749999 2.967197E-05
v 0.8659872 0.8749999 -0.2658723
v 0.6397619 0.8749999 -0.4302625
v 0.3601547 0.8749999 -0.4302625
v 0.1339654 0.8749999 -0.2658723
v -0.1143105 1.132983 2.967197E-05
v 0.002992805 1.132983 0.3610405
v 0.3100463 1.132983 0.5841363
v 0.6896545 1.132983 0.5841363
v 0.9967079 1.132983 0.3610405
v 1.114047 1.132983 2.967197E-05
v 0.9967079 1.132983 -0.3609812
v 0.6896545 1.132983 -0.584077
v 0.3100463 1.132983 -0.584077
v 0.002992805 1.132983 -0.3609812
v 0.5 0 0
v 0.4998324 1.132983 2.967197E-05

vt -0.01545522 -0.06574907
vt 0.03224682 0.1594172
vt 0.3244232 -0.06574907
vt 0.2767412 0.1594288
vt -0.01953784 0.2974942
vt -0.2189992 0.1826297
vt -0.2465545 0.5505421
vt -0.3822908 0.3646343
vt 0.3299386 -0.3757811
vt 0.3776369 -0.1505902
vt 0.6697981 -0.3757811
vt 0.6220998 -0.1505902
vt -0.5787473 0.2044858
vt -0.4430151 0.0185749
vt -0.8057696 -0.04855705
vt -0.6063108 -0.163426
vt -0.01536099 -0.6856826
vt 0.03230624 -0.4605016
vt 0.3245285 -0.6856826
vt 0.2768006 -0.4604972
vt -0.324585 -0.685687
vt -0.276857 -0.4605016
vt 0.01530456 -0.685687
vt -0.03236266 -0.460506
vt -0.8057514 0.04863732
vt -0.6062902 0.1635018
vt -0.5787348 -0.2044106
vt -0.4429985 -0.01850277
vt -0.6697981 -0.3757424
vt -0.6220998 -0.1505515
vt -0.3299386 -0.3757424
vt -0.3776369 -0.1505515
vt -0.2465626 -0.5504935
vt -0.3822948 -0.3645826
vt -0.01954035 -0.2974506
vt -0.2189991 -0.1825817
vt -0.3243667 -0.06573749
vt -0.2766847 0.1594404
vt 0.01551166 -0.06573749
vt -0.03219038 0.1594287
vt 0.03225409 0.1487389
vt 0.04484111 0.2796003
vt 0.2767484 0.1487389
vt 0.2642183 0.2795985
vt 0.2821816 0.0950417
vt 0.2947959 0.2258932
vt 0.5267012 0.0950417
vt 0.5142333 0.2258945
vt 0.3776369 0.008312155
vt 0.3902989 0.1391463
vt 0.6220998 0.008312155
vt 0.6096896 0.1391463
vt 0.2820509 -0.07802893
vt 0.2947224 0.05278019
vt 0.5265705 -0.07802893
vt 0.5141308 0.05278511
vt 0.03228284 -0.1313093
vt 0.04487968 -0.0005102906
vt 0.2767772 -0.1313093
vt 0.2642569 -0.000508479
vt -0.2768337 -0.1313422
vt -0.2643133 -0.0005413442
vt -0.03233931 -0.1313422
vt -0.04493613 -0.0005431587
vt -0.5266054 -0.07809715
vt -0.5141657 0.05271689
vt -0.2820859 -0.07809714
vt -0.2947574 0.05271198
vt -0.6220998 0.008329782
vt -0.6096896 0.139164
vt -0.3776369 0.008329782
vt -0.3902989 0.139164
vt -0.5266662 0.09505213
vt -0.5141984 0.225905
vt -0.2821467 0.09505214
vt -0.294761 0.2259036
vt -0.276692 0.1487418
vt -0.2641619 0.2796013
vt -0.03219765 0.1487418
vt -0.04478467 0.2796032
vt 0.04483724 0.2794119
vt 0.05727864 0.4101422
vt 0.2642145 0.2794119
vt 0.2517662 0.4101407
vt 0.294795 0.2262348
vt 0.3072169 0.3569662
vt 0.5142324 0.2262348
vt 0.5017731 0.3569583
vt 0.3902989 0.1401878
vt 0.4027091 0.2709159
vt 0.6096896 0.1401878
vt 0.5972075 0.2709159
vt 0.2946745 0.05400904
vt 0.3070793 0.1847446
vt 0.5140828 0.05400904
vt 0.5016355 0.1847469
vt 0.04485687 0.0007567964
vt 0.05729399 0.1314957
vt 0.2642341 0.0007567949
vt 0.2517816 0.1314971
vt -0.2642905 0.0007304465
vt -0.251838 0.1314708
vt -0.04491327 0.0007304479
vt -0.05735039 0.1314693
vt -0.5141177 0.053983
vt -0.5016704 0.1847209
vt -0.2947094 0.05398301
vt -0.3071142 0.1847185
vt -0.6096896 0.1402051
vt -0.5972075 0.2709333
vt -0.3902989 0.1402051
vt -0.4027091 0.2709333
vt -0.5141975 0.2262714
vt -0.5017382 0.3569949
vt -0.2947601 0.2262714
vt -0.307182 0.3570028
vt -0.264158 0.279415
vt -0.2517098 0.4101439
vt -0.04478081 0.279415
vt -0.0572222 0.4101454
vt 0.057274 0.3497021
vt 0.05209329 0.4757147
vt 0.2517616 0.3497021
vt 0.256944 0.4757149
vt 0.3072177 0.3726684
vt 0.302043 0.4986816
vt 0.5017738 0.3726684
vt 0.5069319 0.4986766
vt 0.4027091 0.4097788
vt 0.3975292 0.5357861
vt 0.5972075 0.4097788
vt 0.6023874 0.5357861
vt 0.3070546 0.4468949
vt 0.3018965 0.572903
vt 0.5016108 0.4468949
vt 0.5067855 0.572908
vt 0.05727367 0.4700185
vt 0.05209126 0.5960312
vt 0.2517613 0.4700185
vt 0.256942 0.5960311
vt -0.2518177 0.4700077
vt -0.2569984 0.5960203
vt -0.05733011 0.4700077
vt -0.05214771 0.5960205
vt -0.5016457 0.4470572
vt -0.5068204 0.5730703
vt -0.3070895 0.4470572
vt -0.3019314 0.5730653
vt -0.5972075 0.4097714
vt -0.6023874 0.5357786
vt -0.4027091 0.4097714
vt -0.3975292 0.5357786
vt -0.501739 0.3726754
vt -0.506897 0.4986836
vt -0.3071828 0.3726754
vt -0.3020081 0.4986886
vt -0.2517052 0.3496973
vt -0.2568876 0.47571
vt -0.05721756 0.3496973
vt -0.05203685 0.4757099
vt 0.05209216 0.480974
vt 0.0479121 0.606634
vt 0.2569429 0.480974
vt 0.261158 0.6066346
vt 0.3020389 0.4995584
vt 0.297886 0.625221
vt 0.5069278 0.4995584
vt 0.5111639 0.6252251
vt 0.3975292 0.5298274
vt 0.3933565 0.6554962
vt 0.6023874 0.5298274
vt 0.6065961 0.6554962
vt 0.3020141 0.5601116
vt 0.2978071 0.6857805
vt 0.5069031 0.5601116
vt 0.511085 0.6857763
vt 0.05208553 0.5785468
vt 0.04788152 0.7042107
vt 0.2569363 0.5785468
vt 0.2611385 0.7042137
vt -0.2569927 0.5787158
vt -0.261195 0.7043828
vt -0.05214198 0.5787158
vt -0.04793796 0.7043798
vt -0.5069379 0.559927
vt -0.5111198 0.6855917
vt -0.3020489 0.559927
vt -0.2978419 0.6855959
vt -0.6023874 0.5298213
vt -0.6065961 0.6554902
vt -0.3975292 0.5298213
vt -0.3933565 0.6554902
vt -0.506893 0.4995438
vt -0.511129 0.6252105
vt -0.302004 0.4995438
vt -0.2978511 0.6252063
vt -0.2568865 0.4809641
vt -0.2611016 0.6066245
vt -0.05203573 0.4809641
vt -0.04785567 0.6066241
vt 0.04790876 0.4854482
vt 0.02665421 0.6265286
vt 0.2611547 0.4854482
vt 0.2824106 0.6265322
vt 0.2978926 0.5696149
vt 0.2766511 0.7107011
vt 0.5111704 0.5696149
vt 0.5324239 0.7106893
vt 0.3933565 0.7059472
vt 0.3720973 0.8470207
vt 0.6065961 0.7059472
vt 0.6278553 0.8470207
vt 0.2976877 0.8422017
vt 0.2764344 0.983276
vt 0.5109656 0.8422017
vt 0.532207 0.9832878
vt 0.04799225 0.9264033
vt 0.02674683 1.067489
vt 0.2612493 0.9264033
vt 0.2825032 1.067466
vt -0.2613057 0.9262652
vt -0.2825596 1.067328
vt -0.04804869 0.9262652
vt -0.02680327 1.067351
vt -0.5110005 0.8422211
vt -0.5322419 0.9833072
vt -0.2977226 0.8422211
vt -0.2764693 0.9832954
vt -0.6065961 0.7059197
vt -0.6278553 0.8469933
vt -0.3933565 0.7059197
vt -0.3720973 0.8469933
vt -0.5111356 0.5696341
vt -0.5323889 0.7107084
vt -0.2978577 0.5696341
vt -0.2766162 0.7107202
vt -0.2610982 0.4854189
vt -0.2823541 0.6265029
vt -0.04785232 0.4854189
vt -0.02659777 0.6264992
vt 0.02665168 0.6964521
vt 0.0147138 0.8267402
vt 0.282408 0.6964521
vt 0.294313 0.8267276
vt 0.2766412 0.7477173
vt 0.2647054 0.8779899
vt 0.532414 0.7477173
vt 0.5443225 0.8779939
vt 0.3720973 0.8305034
vt 0.3601547 0.9607769
vt 0.6278553 0.8305034
vt 0.6397619 0.9607769
vt 0.2765025 0.9132448
vt 0.2645648 1.043515
vt 0.5322752 0.9132448
vt 0.5442111 1.043517
vt 0.02658082 0.9644445
vt 0.01467589 1.09472
vt 0.2823372 0.9644445
vt 0.294275 1.094733
vt -0.2823936 0.9646447
vt -0.2943315 1.094933
vt -0.02663725 0.9646447
vt -0.01473235 1.09492
vt -0.5323102 0.9132544
vt -0.5442461 1.043527
vt -0.2765375 0.9132544
vt -0.2645998 1.043525
vt -0.6278553 0.8304868
vt -0.6397619 0.9607602
vt -0.3720973 0.8304868
vt -0.3601547 0.9607602
vt -0.532379 0.7476917
vt -0.5442876 0.8779683
vt -0.2766063 0.7476917
vt -0.2646704 0.8779643
vt -0.2823516 0.6965427
vt -0.2942565 0.8268182
vt -0.02659524 0.6965427
vt -0.01465736 0.8268308
vt 0.01472105 0.7282853
vt -0.03531156 1.02869
vt 0.2943202 0.7282854
vt 0.3442789 1.028716
vt 0.2647122 0.8212718
vt 0.2146809 1.121691
vt 0.5443294 0.8212718
vt 0.5942248 1.121664
vt 0.3601547 0.9719273
vt 0.3100463 1.272284
vt 0.6397619 0.9719273
vt 0.6896545 1.272284
vt 0.2645831 1.122398
vt 0.2145248 1.422727
vt 0.5442293 1.122398
vt 0.5940686 1.422739
vt 0.01482102 1.215322
vt -0.0352155 1.515631
vt 0.2944202 1.215322
vt 0.3443861 1.515622
vt -0.2944767 1.215297
vt -0.3444425 1.515596
vt -0.01487749 1.215297
vt 0.03515907 1.515605
vt -0.5442641 1.122386
vt -0.5941035 1.422727
vt -0.2646179 1.122386
vt -0.2145596 1.422714
vt -0.6397619 0.9718968
vt -0.6896545 1.272253
vt -0.3601547 0.9718968
vt -0.3100463 1.272253
vt -0.5442945 0.8212969
vt -0.5941899 1.121689
vt -0.2646773 0.8212969
vt -0.214646 1.121716
vt -0.2942638 0.7282038
vt -0.3442225 1.028635
vt -0.01466461 0.7282038
vt 0.035368 1.028608
vt -0.0537181 0.001144539
vt 0.498281 0.001114856
vt 0.05095781 0.3245024
vt 0.1143105 2.967197E-05
vt -0.4998324 2.967197E-05
vt -0.002992805 0.3610405
vt 0.05251603 0.3258835
vt 0.499341 0.001807911
vt 0.3271563 0.5262394
vt -0.3100463 0.5841363
vt 0.3299386 0.5251238
vt 0.5 0
vt 0.6697981 0.5251238
vt -0.6896545 0.5841363
vt 0.6712629 0.5226233
vt 0.4993406 -0.001808976
vt 0.9459029 0.3222671
vt -0.9967079 0.3610405
vt 0.9453406 0.3222715
vt 0.4982796 -0.001116153
vt 1.050052 -0.00108647
vt -1.114047 2.967197E-05
vt 1.050052 0.001145914
vt 0.9453406 -0.3222121
vt -0.9967079 -0.3609812
vt 0.9459029 -0.3222074
vt 0.6712629 -0.5225636
vt -0.6896545 -0.584077
vt 0.6697981 -0.5250647
vt 0.3299386 -0.5250647
vt -0.3100463 -0.584077
vt 0.327156 -0.5261804
vt 0.0525158 -0.3258244
vt -0.002992805 -0.3609812
vt 0.05095767 -0.3244431
vt -0.05371822 -0.001085251

vn -0.7417841 0.6706388 -1.107447E-05
vn -0.8643995 0.5028057 -6.718695E-06
vn -0.6001295 0.6706422 0.4359858
vn -0.6993365 0.5027539 0.5081014
vn -0.2292512 0.6707036 0.705408
vn -0.2671681 0.502648 0.8221717
vn 0.2292559 0.6707109 0.7053997
vn 0.2672443 0.5024059 0.8222949
vn 0.6000954 0.6706606 0.4360044
vn 0.6996049 0.5021942 0.5082853
vn 0.7417204 0.6707093 -4.153925E-06
vn 0.8647639 0.5021787 -6.459131E-06
vn 0.6001043 0.6706576 -0.4359969
vn 0.6995975 0.5022159 -0.508274
vn 0.2292512 0.6707036 -0.705408
vn 0.2672422 0.502426 -0.8222833
vn -0.2292559 0.6707109 -0.7053996
vn -0.2671763 0.5026455 -0.8221705
vn -0.6001183 0.6706606 -0.4359728
vn -0.6993436 0.5027367 -0.5081086
vn -0.9513482 0.3081175 6.675594E-06
vn -0.7696754 0.3080475 0.5592017
vn -0.2940436 0.3078733 0.9048494
vn 0.2941013 0.3076746 0.9048982
vn 0.7698399 0.3075364 0.5592565
vn 0.9515486 0.3074986 -6.667912E-06
vn 0.7698379 0.3075253 -0.5592654
vn 0.2941166 0.307665 -0.9048965
vn -0.2940357 0.3078444 -0.9048617
vn -0.7696853 0.3080201 -0.5592031
vn -0.9959958 0.08940024 4.718183E-06
vn -0.8058172 0.08936106 0.5853829
vn -0.307853 0.08946426 0.9472184
vn 0.3078613 0.08959668 0.9472032
vn 0.8057961 0.08954365 0.5853841
vn 0.995984 0.08953115 -4.710294E-06
vn 0.8058148 0.08948803 -0.5853669
vn 0.3078435 0.08954518 -0.9472138
vn -0.307857 0.08953676 -0.9472103
vn -0.8058052 0.0894378 -0.5853878
vn -0.9927423 -0.1202615 3.797193E-06
vn -0.8031517 -0.1202797 0.5835067
vn -0.3068011 -0.1203679 0.9441317
vn 0.3067924 -0.1204921 0.9441187
vn 0.8031312 -0.120478 0.5834941
vn 0.9927123 -0.1205084 1.726354E-05
vn 0.8031242 -0.1204291 -0.5835138
vn 0.3067981 -0.1204115 -0.9441271
vn -0.3067954 -0.1204485 -0.9441233
vn -0.8031428 -0.1203638 -0.5835015
vn -0.9534022 -0.3017023 7.203869E-06
vn -0.7713356 -0.3018055 0.5603167
vn -0.2946709 -0.3019744 0.9066314
vn 0.2946634 -0.3019554 0.9066402
vn 0.7712805 -0.3018883 0.5603481
vn 0.9533507 -0.3018651 -1.136541E-05
vn 0.7712841 -0.3018808 -0.5603471
vn 0.2946655 -0.3020159 -0.9066194
vn -0.2946689 -0.3019138 -0.9066523
vn -0.7713515 -0.3017465 -0.5603267
vn -0.9203953 -0.3909892 -2.041082E-05
vn -0.7446721 -0.3908924 0.5409867
vn -0.284491 -0.3908156 0.8754017
vn 0.2844971 -0.3908062 0.8754039
vn 0.7446889 -0.3908332 0.5410064
vn 0.9204281 -0.3909119 6.321729E-06
vn 0.7446721 -0.3908924 -0.5409867
vn 0.2844865 -0.3907967 -0.8754115
vn -0.2844887 -0.3908433 -0.87539
vn -0.7446887 -0.3908766 -0.5409753
vn -0.9087112 -0.4174254 2.223986E-06
vn -0.7352185 -0.4172961 0.5341515
vn -0.2808768 -0.4172205 0.8643121
vn 0.2809002 -0.4170861 0.8643693
vn 0.7352849 -0.4170704 0.5342363
vn 0.9088432 -0.4171378 9.764939E-06
vn 0.7353002 -0.4170308 -0.5342461
vn 0.2808895 -0.4170888 -0.8643715
vn -0.2808937 -0.4171911 -0.8643208
vn -0.7352003 -0.4173206 -0.5341573
vn -0.8471015 -0.5314312 2.523876E-05
vn -0.6853258 -0.5314459 0.4978894
vn -0.2617935 -0.531253 0.8057508
vn 0.2618611 -0.5311067 0.8058253
vn 0.6855308 -0.5309816 0.4981025
vn 0.8474302 -0.5309068 -8.531782E-06
vn 0.6855441 -0.5309787 -0.4980871
vn 0.2618523 -0.5310959 -0.8058353
vn -0.2618132 -0.5312771 -0.8057286
vn -0.6852958 -0.5314462 -0.4979303
vn 0.08282045 -0.996201 -0.0269125
vn 0 1 0
vn 0.05119832 -0.9962007 -0.07044837
vn 0 -0.9962003 -0.08709215
vn -0.05121335 -0.9961984 -0.07046906
vn -0.08285439 -0.9961977 -0.02693275
vn -0.08285727 -0.9961974 0.02693369
vn -0.05121803 -0.9961978 0.07047549
vn 0 -0.9961994 0.08710197
vn 0.05120298 -0.9962 0.07045478
vn 0.08282331 -0.9962008 0.02691343

usemtl DefaultHDMaterial
f 1/321/91 91/322/91 3/323/91
f 3/327/93 91/328/93 5/329/93
f 5/331/94 91/332/94 7/333/94
f 7/335/95 91/336/95 9/337/95
f 9/339/96 91/340/96 11/341/96
f 11/343/97 91/322/97 13/344/97
f 13/346/98 91/328/98 15/347/98
f 15/349/99 91/332/99 17/350/99
f 17/352/100 91/336/100 19/353/100
f 19/355/101 91/340/101 1/356/101
f 82/326/92 92/325/92 81/324/92
f 83/330/92 92/325/92 82/326/92
f 84/334/92 92/325/92 83/330/92
f 85/338/92 92/325/92 84/334/92
f 86/342/92 92/325/92 85/338/92
f 87/345/92 92/325/92 86/342/92
f 88/348/92 92/325/92 87/345/92
f 89/351/92 92/325/92 88/348/92
f 90/354/92 92/325/92 89/351/92
f 81/324/92 92/325/92 90/354/92
f 4/4/4 2/2/2 1/1/1
f 1/1/1 3/3/3 4/4/4
f 6/8/6 4/6/4 3/5/3
f 3/5/3 5/7/5 6/8/6
f 8/12/8 6/10/6 5/9/5
f 5/9/5 7/11/7 8/12/8
f 10/16/10 8/14/8 7/13/7
f 7/13/7 9/15/9 10/16/10
f 12/20/12 10/18/10 9/17/9
f 9/17/9 11/19/11 12/20/12
f 14/24/14 12/22/12 11/21/11
f 11/21/11 13/23/13 14/24/14
f 16/28/16 14/26/14 13/25/13
f 13/25/13 15/27/15 16/28/16
f 18/32/18 16/30/16 15/29/15
f 15/29/15 17/31/17 18/32/18
f 20/36/20 18/34/18 17/33/17
f 17/33/17 19/35/19 20/36/20
f 2/40/2 20/38/20 19/37/19
f 19/37/19 1/39/1 2/40/2
f 22/44/22 21/42/21 2/41/2
f 2/41/2 4/43/4 22/44/22
f 23/48/23 22/46/22 4/45/4
f 4/45/4 6/47/6 23/48/23
f 24/52/24 23/50/23 6/49/6
f 6/49/6 8/51/8 24/52/24
f 25/56/25 24/54/24 8/53/8
f 8/53/8 10/55/10 25/56/25
f 26/60/26 25/58/25 10/57/10
f 10/57/10 12/59/12 26/60/26
f 27/64/27 26/62/26 12/61/12
f 12/61/12 14/63/14 27/64/27
f 28/68/28 27/66/27 14/65/14
f 14/65/14 16/67/16 28/68/28
f 29/72/29 28/70/28 16/69/16
f 16/69/16 18/71/18 29/72/29
f 30/76/30 29/74/29 18/73/18
f 18/73/18 20/75/20 30/76/30
f 21/80/21 30/78/30 20/77/20
f 20/77/20 2/79/2 21/80/21
f 32/84/32 31/82/31 21/81/21
f 21/81/21 22/83/22 32/84/32
f 33/88/33 32/86/32 22/85/22
f 22/85/22 23/87/23 33/88/33
f 34/92/34 33/90/33 23/89/23
f 23/89/23 24/91/24 34/92/34
f 35/96/35 34/94/34 24/93/24
f 24/93/24 25/95/25 35/96/35
f 36/100/36 35/98/35 25/97/25
f 25/97/25 26/99/26 36/100/36
f 37/104/37 36/102/36 26/101/26
f 26/101/26 27/103/27 37/104/37
f 38/108/38 37/106/37 27/105/27
f 27/105/27 28/107/28 38/108/38
f 39/112/39 38/110/38 28/109/28
f 28/109/28 29/111/29 39/112/39
f 40/116/40 39/114/39 29/113/29
f 29/113/29 30/115/30 40/116/40
f 31/120/31 40/118/40 30/117/30
f 30/117/30 21/119/21 31/120/31
f 42/124/42 41/122/41 31/121/31
f 31/121/31 32/123/32 42/124/42
f 43/128/43 42/126/42 32/125/32
f 32/125/32 33/127/33 43/128/43
f 44/132/44 43/130/43 33/129/33
f 33/129/33 34/131/34 44/132/44
f 45/136/45 44/134/44 34/133/34
f 34/133/34 35/135/35 45/136/45
f 46/140/46 45/138/45 35/137/35
f 35/137/35 36/139/36 46/140/46
f 47/144/47 46/142/46 36/141/36
f 36/141/36 37/143/37 47/144/47
f 48/148/48 47/146/47 37/145/37
f 37/145/37 38/147/38 48/148/48
f 49/152/49 48/150/48 38/149/38
f 38/149/38 39/151/39 49/152/49
f 50/156/50 49/154/49 39/153/39
f 39/153/39 40/155/40 50/156/50
f 41/160/41 50/158/50 40/157/40
f 40/157/40 31/159/31 41/160/41
f 52/164/52 51/162/51 41/161/41
f 41/161/41 42/163/42 52/164/52
f 53/168/53 52/166/52 42/165/42
f 42/165/42 43/167/43 53/168/53
f 54/172/54 53/170/53 43/169/43
f 43/169/43 44/171/44 54/172/54
f 55/176/55 54/174/54 44/173/44
f 44/173/44 45/175/45 55/176/55
f 56/180/56 55/178/55 45/177/45
f 45/177/45 46/179/46 56/180/56
f 57/184/57 56/182/56 46/181/46
f 46/181/46 47/183/47 57/184/57
f 58/188/58 57/186/57 47/185/47
f 47/185/47 48/187/48 58/188/58
f 59/192/59 58/190/58 48/189/48
f 48/189/48 49/191/49 59/192/59
f 60/196/60 59/194/59 49/193/49
f 49/193/49 50/195/50 60/196/60
f 51/200/51 60/198/60 50/197/50
f 50/197/50 41/199/41 51/200/51
f 62/204/62 61/202/61 51/201/51
f 51/201/51 52/203/52 62/204/62
f 63/208/63 62/206/62 52/205/52
f 52/205/52 53/207/53 63/208/63
f 64/212/64 63/210/63 53/209/53
f 53/209/53 54/211/54 64/212/64
f 65/216/65 64/214/64 54/213/54
f 54/213/54 55/215/55 65/216/65
f 66/220/66 65/218/65 55/217/55
f 55/217/55 56/219/56 66/220/66
f 67/224/67 66/222/66 56/221/56
f 56/221/56 57/223/57 67/224/67
f 68/228/68 67/226/67 57/225/57
f 57/225/57 58/227/58 68/228/68
f 69/232/69 68/230/68 58/229/58
f 58/229/58 59/231/59 69/232/69
f 70/236/70 69/234/69 59/233/59
f 59/233/59 60/235/60 70/236/70
f 61/240/61 70/238/70 60/237/60
f 60/237/60 51/239/51 61/240/61
f 72/244/72 71/242/71 61/241/61
f 61/241/61 62/243/62 72/244/72
f 73/248/73 72/246/72 62/245/62
f 62/245/62 63/247/63 73/248/73
f 74/252/74 73/250/73 63/249/63
f 63/249/63 64/251/64 74/252/74
f 75/256/75 74/254/74 64/253/64
f 64/253/64 65/255/65 75/256/75
f 76/260/76 75/258/75 65/257/65
f 65/257/65 66/259/66 76/260/76
f 77/264/77 76/262/76 66/261/66
f 66/261/66 67/263/67 77/264/77
f 78/268/78 77/266/77 67/265/67
f 67/265/67 68/267/68 78/268/78
f 79/272/79 78/270/78 68/269/68
f 68/269/68 69/271/69 79/272/79
f 80/276/80 79/274/79 69/273/69
f 69/273/69 70/275/70 80/276/80
f 71/280/71 80/278/80 70/277/70
f 70/277/70 61/279/61 71/280/71
f 82/284/82 81/282/81 71/281/71
f 71/281/71 72/283/72 82/284/82
f 83/288/83 82/286/82 72/285/72
f 72/285/72 73/287/73 83/288/83
f 84/292/84 83/290/83 73/289/73
f 73/289/73 74/291/74 84/292/84
f 85/296/85 84/294/84 74/293/74
f 74/293/74 75/295/75 85/296/85
f 86/300/86 85/298/85 75/297/75
f 75/297/75 76/299/76 86/300/86
f 87/304/87 86/302/86 76/301/76
f 76/301/76 77/303/77 87/304/87
f 88/308/88 87/306/87 77/305/77
f 77/305/77 78/307/78 88/308/88
f 89/312/89 88/310/88 78/309/78
f 78/309/78 79/311/79 89/312/89
f 90/316/90 89/314/89 79/313/79
f 79/313/79 80/315/80 90/316/90
f 81/320/81 90/318/90 80/317/80
f 80/317/80 71/319/71 81/320/81

